<svg class="w-6 h-6" width="24" height="24" viewBox="0 0 24 24" fill="none" xmlns="http://www.w3.org/2000/svg"><path d="M17 19C17.5523 19 18 19.4477 18 20C18 20.5523 17.5523 21 17 21H7C6.44772 21 6 20.5523 6 20C6 19.4477 6.44772 19 7 19H17Z" fill="#686583" style="fill-opacity:1;"/><path d="M12.1465 9.47853C12.4345 9.0073 13.0502 8.85857 13.5215 9.1465C13.9927 9.43447 14.1414 10.0503 13.8535 10.5215C13.441 11.1965 13.3361 11.8963 13.375 12.6797C13.3949 13.0792 13.4515 13.4896 13.5215 13.9297C13.5888 14.3528 13.6744 14.8328 13.7305 15.291C13.8435 16.2156 13.874 17.2837 13.3828 18.3184C12.9137 19.3061 12.0422 20.1161 10.6904 20.7793L10.4141 20.9102C9.91138 21.1387 9.31848 20.9166 9.08985 20.4141C8.86136 19.9114 9.08337 19.3185 9.58594 19.0899L10.0176 18.8779C10.95 18.3841 11.3713 17.8914 11.5762 17.46C11.8192 16.9479 11.8445 16.3469 11.7451 15.5342C11.6949 15.1237 11.6222 14.7174 11.5469 14.2442C11.4743 13.7878 11.4034 13.2907 11.3779 12.7793C11.3263 11.741 11.4591 10.6033 12.1465 9.47853Z" fill="#686583" style="fill-opacity:1;"/><path d="M3.82421 7.61562C6.82452 7.07985 8.71788 7.59493 10.0879 8.59121C11.4519 9.58325 12.2343 11.2395 12.749 12.7836L12.7773 12.8871C12.8302 13.1297 12.7909 13.385 12.665 13.602C12.5211 13.85 12.2773 14.0242 11.9961 14.0805C9.93818 14.492 8.15877 14.5467 6.55273 13.6928V13.6947C5.12909 12.9829 3.95203 11.5566 3.19042 9.34414L3.04296 8.89101C2.95983 8.61761 2.99825 8.32127 3.14746 8.07754C3.29673 7.83396 3.54297 7.66585 3.82421 7.61562ZM8.9121 10.2084C8.22001 9.70506 7.19638 9.28586 5.36816 9.4291C5.92898 10.7066 6.62005 11.4323 7.28124 11.8158L7.44726 11.9057L7.47363 11.9193C8.24291 12.3336 9.1487 12.456 10.4248 12.308C10.0138 11.3813 9.5218 10.6518 8.9121 10.2084Z" fill="#686583" style="fill-opacity:1;"/><path d="M19.0666 3.00195C19.3081 3.01806 19.5369 3.12164 19.7092 3.29492C19.8814 3.46825 19.9836 3.69791 19.9983 3.93945L19.9992 4.04297C19.8979 6.37312 19.3056 7.89032 18.2287 9.07422L18.007 9.30664L17.925 9.38086C16.7942 10.2855 15.2996 10.8215 13.4309 10.9736L13.0529 10.999C12.7846 11.0131 12.5214 10.9181 12.3234 10.7363C12.1505 10.5774 12.0399 10.3635 12.009 10.1328L12.0002 10.0322C11.9478 8.41648 12.3867 6.82265 13.258 5.46094L13.3567 5.33105L13.5568 5.11621C14.0404 4.6174 14.6424 4.13522 15.4514 3.75684C16.3706 3.32686 17.5071 3.0549 18.9631 3.00098L19.0666 3.00195ZM17.8918 5.10645C17.2316 5.20971 16.7147 5.37396 16.299 5.56836C15.7044 5.84649 15.2717 6.20515 14.9006 6.60645C14.4677 7.30308 14.1844 8.07768 14.0637 8.88184C15.1938 8.69455 16.0227 8.3258 16.6311 7.85254C17.2366 7.2335 17.6871 6.44907 17.8918 5.10645Z" fill="#686583" style="fill-opacity:1;"/></svg>